<svg width="32" height="32" viewBox="0 0 32 32" fill="none" xmlns="http://www.w3.org/2000/svg">
<rect width="32" height="32" rx="16" fill="#3FB8A7"/>
<path d="M19.1315 6.23999C20.349 6.23999 21.3359 8.09197 21.3359 9.66107C21.3359 11.2302 20.349 12.5022 19.1315 12.5022C17.9142 12.5022 16.9272 11.2302 16.9272 9.66107C16.9272 8.09197 17.9142 6.23999 19.1315 6.23999Z" fill="white"/>
<path d="M12.8685 6.23999C14.0859 6.23999 15.0728 8.09197 15.0728 9.66107C15.0728 11.2302 14.0859 12.5022 12.8685 12.5022C11.6511 12.5022 10.6642 11.2302 10.6642 9.66107C10.6642 8.09197 11.6511 6.23999 12.8685 6.23999Z" fill="white"/>
<path d="M6.2671 14.5152C5.75009 13.2209 5.97651 11.3591 7.00854 10.9468C8.04058 10.5346 9.48739 11.7281 10.0044 13.0224C10.5214 14.3168 10.1039 15.7002 9.07185 16.1124C8.03983 16.5247 6.78411 15.8096 6.2671 14.5152Z" fill="white"/>
<path d="M25.733 14.5152C25.2159 15.8096 23.9602 16.5247 22.9282 16.1124C21.8961 15.7002 21.4786 14.3168 21.9956 13.0224C22.5126 11.7281 23.9594 10.5346 24.9915 10.9468C26.0236 11.3591 26.2499 13.2209 25.733 14.5152Z" fill="white"/>
<path d="M18.3198 20.388C18.0193 20.9371 17.5451 21.4207 17.1447 21.7969C16.9295 21.9992 16.7034 22.1885 16.4678 22.3635C16.4673 22.3638 16.4669 22.3641 16.4664 22.3645C16.1896 22.5682 15.8104 22.5682 15.5336 22.3645C15.5332 22.3641 15.5327 22.3638 15.5323 22.3635C15.2967 22.1885 15.0706 21.9992 14.8553 21.7969C14.4549 21.4207 13.9807 20.9371 13.6802 20.388C13.4321 19.9345 13.3024 19.4365 13.4309 18.9175C13.554 18.42 13.9467 17.983 14.4281 17.922C14.9848 17.8515 15.6329 18.2432 16 18.6932C16.3671 18.2432 17.0152 17.8515 17.5719 17.922C18.0534 17.983 18.446 18.42 18.5691 18.9175C18.6976 19.4365 18.568 19.9345 18.3198 20.388ZM23.8861 21.6649C23.6497 20.6049 23.0862 19.6489 22.4627 18.7629C21.0023 16.6872 18.663 14.5912 16 14.5912C13.348 14.5912 10.9981 16.6867 9.53729 18.7629C8.91388 19.6489 8.35033 20.6049 8.11395 21.6649C7.87753 22.7251 8.00683 23.9105 8.66355 24.7717C9.32026 25.6329 10.5642 26.0628 11.537 25.5967C12.1154 25.3196 12.5835 24.7606 13.2215 24.7069C13.8073 24.6576 14.3249 25.0521 14.8134 25.3818C15.1665 25.6202 15.5922 25.8371 16 25.84C16.4079 25.8371 16.8335 25.6202 17.1866 25.3818C17.6751 25.0521 18.1928 24.6576 18.7785 24.7069C19.4166 24.7606 19.8846 25.3196 20.463 25.5967C21.4358 26.0628 22.6798 25.6329 23.3365 24.7717C23.9932 23.9105 24.1225 22.7251 23.8861 21.6649Z" fill="white"/>
</svg>
