<svg width="400" height="400" viewBox="0 0 400 400" fill="none" xmlns="http://www.w3.org/2000/svg">
<path d="M245.285 49.8294C262.532 49.8294 276.513 76.0658 276.513 98.2948C276.513 120.524 262.532 138.544 245.285 138.544C228.039 138.544 214.057 120.524 214.057 98.2948C214.057 76.0658 228.039 49.8294 245.285 49.8294Z" fill="#3FB8A7"/>
<path d="M156.558 49.8294C173.804 49.8294 187.786 76.0658 187.786 98.2948C187.786 120.524 173.804 138.544 156.558 138.544C139.311 138.544 125.33 120.524 125.33 98.2948C125.33 76.0658 139.311 49.8294 156.558 49.8294Z" fill="#3FB8A7"/>
<path d="M63.0388 167.062C55.7145 148.725 58.9222 122.35 73.5425 116.51C88.1632 110.67 108.66 127.577 115.984 145.914C123.308 164.25 117.394 183.849 102.773 189.689C88.1525 195.529 70.3632 185.399 63.0388 167.062Z" fill="#3FB8A7"/>
<path d="M338.805 167.062C331.48 185.399 313.69 195.529 299.07 189.689C284.449 183.849 278.535 164.25 285.859 145.914C293.183 127.577 313.68 110.67 328.3 116.51C342.921 122.35 346.128 148.725 338.805 167.062Z" fill="#3FB8A7"/>
<path d="M233.785 250.26C229.528 258.038 222.81 264.89 217.138 270.22C214.088 273.085 210.886 275.767 207.548 278.246C207.542 278.251 207.535 278.255 207.528 278.26C203.607 281.146 198.236 281.146 194.314 278.26C194.308 278.255 194.301 278.251 194.295 278.246C190.957 275.767 187.754 273.085 184.705 270.22C179.033 264.89 172.314 258.038 168.058 250.26C164.542 243.836 162.706 236.78 164.526 229.427C166.27 222.38 171.832 216.19 178.653 215.325C186.539 214.326 195.72 219.875 200.921 226.25C206.122 219.875 215.304 214.326 223.19 215.325C230.011 216.19 235.573 222.38 237.317 229.427C239.137 236.78 237.301 243.836 233.785 250.26ZM312.641 268.35C309.292 253.332 301.308 239.789 292.477 227.237C271.786 197.832 238.647 168.138 200.921 168.138C163.351 168.138 130.061 197.825 109.366 227.237C100.534 239.789 92.5508 253.332 89.2021 268.35C85.8528 283.368 87.6845 300.162 96.9881 312.362C106.291 324.563 123.914 330.653 137.696 324.049C145.889 320.124 152.52 312.205 161.559 311.444C169.857 310.746 177.191 316.334 184.111 321.006C189.114 324.383 195.143 327.456 200.921 327.496C206.699 327.456 212.729 324.383 217.731 321.006C224.652 316.334 231.985 310.746 240.283 311.444C249.322 312.205 255.954 320.124 264.147 324.049C277.929 330.653 295.551 324.563 304.855 312.362C314.158 300.162 315.99 283.368 312.641 268.35Z" fill="#3FB8A7"/>
</svg>
