<svg width="219" height="75" viewBox="0 0 219 75" fill="none" xmlns="http://www.w3.org/2000/svg">
<path d="M46.491 9.34302C49.7248 9.34302 52.3462 14.2623 52.3462 18.4303C52.3462 22.5982 49.7248 25.977 46.491 25.977C43.2574 25.977 40.6359 22.5982 40.6359 18.4303C40.6359 14.2623 43.2574 9.34302 46.491 9.34302Z" fill="#3FB8A7"/>
<path d="M29.8547 9.34302C33.0884 9.34302 35.7099 14.2623 35.7099 18.4303C35.7099 22.5982 33.0884 25.977 29.8547 25.977C26.6209 25.977 23.9995 22.5982 23.9995 18.4303C23.9995 14.2623 26.6209 9.34302 29.8547 9.34302Z" fill="#3FB8A7"/>
<path d="M12.3198 31.3242C10.9465 27.886 11.548 22.9406 14.2893 21.8456C17.0307 20.7506 20.8737 23.9208 22.247 27.3588C23.6203 30.797 22.5113 34.4718 19.77 35.5667C17.0287 36.6618 13.6932 34.7623 12.3198 31.3242Z" fill="#3FB8A7"/>
<path d="M64.0259 31.3242C62.6526 34.7623 59.317 36.6618 56.5756 35.5667C53.8343 34.4718 52.7253 30.797 54.0986 27.3588C55.4719 23.9208 59.315 20.7506 62.0564 21.8456C64.7978 22.9406 65.3991 27.886 64.0259 31.3242Z" fill="#3FB8A7"/>
<path d="M44.3347 46.9238C43.5366 48.3822 42.2769 49.6669 41.2134 50.6662C40.6416 51.2035 40.0411 51.7064 39.4153 52.1711C39.4141 52.172 39.4129 52.1728 39.4115 52.1738C38.6764 52.715 37.6692 52.715 36.934 52.1738C36.9327 52.1728 36.9315 52.172 36.9303 52.1711C36.3045 51.7064 35.704 51.2035 35.1322 50.6662C34.0687 49.6669 32.809 48.3822 32.0108 46.9238C31.3517 45.7192 31.0073 44.3963 31.3486 43.0176C31.6756 41.6963 32.7186 40.5356 33.9974 40.3735C35.476 40.1861 37.1976 41.2266 38.1728 42.4219C39.1479 41.2266 40.8695 40.1861 42.3482 40.3735C43.627 40.5356 44.6699 41.6963 44.997 43.0176C45.3382 44.3963 44.9939 45.7192 44.3347 46.9238ZM59.1202 50.3156C58.4923 47.4997 56.9954 44.9604 55.3394 42.6069C51.46 37.0934 45.2464 31.5259 38.1728 31.5259C31.1284 31.5259 24.8866 37.0922 21.0062 42.6069C19.3502 44.9604 17.8533 47.4997 17.2254 50.3156C16.5974 53.1316 16.9409 56.2804 18.6853 58.5679C20.4297 60.8555 23.734 61.9974 26.318 60.7593C27.8543 60.0233 29.0976 58.5384 30.7924 58.3958C32.3483 58.2648 33.7233 59.3126 35.0209 60.1886C35.9589 60.8217 37.0894 61.398 38.1728 61.4055C39.2561 61.398 40.3867 60.8217 41.3247 60.1886C42.6223 59.3126 43.9972 58.2648 45.5532 58.3958C47.248 58.5384 48.4913 60.0233 50.0276 60.7593C52.6116 61.9974 55.9159 60.8555 57.6604 58.5679C59.4047 56.2804 59.7482 53.1316 59.1202 50.3156Z" fill="#3FB8A7"/>
<path d="M88.576 49.288C87.832 49.288 87.256 49.084 86.848 48.676C86.464 48.244 86.272 47.656 86.272 46.912V25.96C86.272 25.192 86.476 24.616 86.884 24.232C87.292 23.824 87.868 23.62 88.612 23.62H97.288C100.072 23.62 102.22 24.316 103.732 25.708C105.244 27.1 106 29.044 106 31.54C106 34.036 105.244 35.992 103.732 37.408C102.22 38.8 100.072 39.496 97.288 39.496H90.88V46.912C90.88 47.656 90.688 48.244 90.304 48.676C89.92 49.084 89.344 49.288 88.576 49.288ZM90.88 35.86H96.568C98.2 35.86 99.436 35.5 100.276 34.78C101.116 34.036 101.536 32.956 101.536 31.54C101.536 30.124 101.116 29.056 100.276 28.336C99.436 27.616 98.2 27.256 96.568 27.256H90.88V35.86ZM114.277 49.36C113.005 49.36 111.865 49.12 110.857 48.64C109.873 48.136 109.093 47.464 108.517 46.624C107.965 45.784 107.689 44.836 107.689 43.78C107.689 42.484 108.025 41.464 108.697 40.72C109.369 39.952 110.461 39.4 111.973 39.064C113.485 38.728 115.513 38.56 118.057 38.56H119.857V41.152H118.093C116.605 41.152 115.417 41.224 114.529 41.368C113.641 41.512 113.005 41.764 112.621 42.124C112.261 42.46 112.081 42.94 112.081 43.564C112.081 44.356 112.357 45.004 112.909 45.508C113.461 46.012 114.229 46.264 115.213 46.264C116.005 46.264 116.701 46.084 117.301 45.724C117.925 45.34 118.417 44.824 118.777 44.176C119.137 43.528 119.317 42.784 119.317 41.944V37.804C119.317 36.604 119.053 35.74 118.525 35.212C117.997 34.684 117.109 34.42 115.861 34.42C115.165 34.42 114.409 34.504 113.593 34.672C112.801 34.84 111.961 35.128 111.073 35.536C110.617 35.752 110.209 35.812 109.849 35.716C109.513 35.62 109.249 35.428 109.057 35.14C108.865 34.828 108.769 34.492 108.769 34.132C108.769 33.772 108.865 33.424 109.057 33.088C109.249 32.728 109.573 32.464 110.029 32.296C111.133 31.84 112.189 31.516 113.197 31.324C114.229 31.132 115.165 31.036 116.005 31.036C117.733 31.036 119.149 31.3 120.253 31.828C121.381 32.356 122.221 33.16 122.773 34.24C123.325 35.296 123.601 36.664 123.601 38.344V46.984C123.601 47.728 123.421 48.304 123.061 48.712C122.701 49.096 122.185 49.288 121.513 49.288C120.841 49.288 120.313 49.096 119.929 48.712C119.569 48.304 119.389 47.728 119.389 46.984V45.256H119.677C119.509 46.096 119.173 46.828 118.669 47.452C118.189 48.052 117.577 48.52 116.833 48.856C116.089 49.192 115.237 49.36 114.277 49.36ZM136.232 49.36C134.672 49.36 133.364 49.096 132.308 48.568C131.276 48.04 130.508 47.272 130.004 46.264C129.5 45.232 129.248 43.96 129.248 42.448V34.78H127.376C126.8 34.78 126.356 34.636 126.044 34.348C125.732 34.036 125.576 33.616 125.576 33.088C125.576 32.536 125.732 32.116 126.044 31.828C126.356 31.54 126.8 31.396 127.376 31.396H129.248V28.12C129.248 27.376 129.44 26.812 129.824 26.428C130.232 26.044 130.796 25.852 131.516 25.852C132.236 25.852 132.788 26.044 133.172 26.428C133.556 26.812 133.748 27.376 133.748 28.12V31.396H137.564C138.14 31.396 138.584 31.54 138.896 31.828C139.208 32.116 139.364 32.536 139.364 33.088C139.364 33.616 139.208 34.036 138.896 34.348C138.584 34.636 138.14 34.78 137.564 34.78H133.748V42.196C133.748 43.348 134 44.212 134.504 44.788C135.008 45.364 135.824 45.652 136.952 45.652C137.36 45.652 137.72 45.616 138.032 45.544C138.344 45.472 138.62 45.424 138.86 45.4C139.148 45.376 139.388 45.472 139.58 45.688C139.772 45.88 139.868 46.288 139.868 46.912C139.868 47.392 139.784 47.824 139.616 48.208C139.472 48.568 139.196 48.82 138.788 48.964C138.476 49.06 138.068 49.144 137.564 49.216C137.06 49.312 136.616 49.36 136.232 49.36ZM144.674 49.252C143.954 49.252 143.402 49.036 143.018 48.604C142.634 48.172 142.442 47.572 142.442 46.804V33.592C142.442 32.8 142.634 32.2 143.018 31.792C143.402 31.36 143.954 31.144 144.674 31.144C145.394 31.144 145.946 31.36 146.33 31.792C146.738 32.2 146.942 32.8 146.942 33.592V46.804C146.942 47.572 146.75 48.172 146.366 48.604C145.982 49.036 145.418 49.252 144.674 49.252ZM144.674 27.796C143.834 27.796 143.174 27.592 142.694 27.184C142.238 26.752 142.01 26.164 142.01 25.42C142.01 24.652 142.238 24.064 142.694 23.656C143.174 23.248 143.834 23.044 144.674 23.044C145.538 23.044 146.198 23.248 146.654 23.656C147.11 24.064 147.338 24.652 147.338 25.42C147.338 26.164 147.11 26.752 146.654 27.184C146.198 27.592 145.538 27.796 144.674 27.796ZM159.681 49.36C158.121 49.36 156.813 49.096 155.757 48.568C154.725 48.04 153.957 47.272 153.453 46.264C152.949 45.232 152.697 43.96 152.697 42.448V34.78H150.825C150.249 34.78 149.805 34.636 149.493 34.348C149.181 34.036 149.025 33.616 149.025 33.088C149.025 32.536 149.181 32.116 149.493 31.828C149.805 31.54 150.249 31.396 150.825 31.396H152.697V28.12C152.697 27.376 152.889 26.812 153.273 26.428C153.681 26.044 154.245 25.852 154.965 25.852C155.685 25.852 156.237 26.044 156.621 26.428C157.005 26.812 157.197 27.376 157.197 28.12V31.396H161.013C161.589 31.396 162.033 31.54 162.345 31.828C162.657 32.116 162.813 32.536 162.813 33.088C162.813 33.616 162.657 34.036 162.345 34.348C162.033 34.636 161.589 34.78 161.013 34.78H157.197V42.196C157.197 43.348 157.449 44.212 157.953 44.788C158.457 45.364 159.273 45.652 160.401 45.652C160.809 45.652 161.169 45.616 161.481 45.544C161.793 45.472 162.069 45.424 162.309 45.4C162.597 45.376 162.837 45.472 163.029 45.688C163.221 45.88 163.317 46.288 163.317 46.912C163.317 47.392 163.233 47.824 163.065 48.208C162.921 48.568 162.645 48.82 162.237 48.964C161.925 49.06 161.517 49.144 161.013 49.216C160.509 49.312 160.065 49.36 159.681 49.36ZM171.23 49.36C169.958 49.36 168.818 49.12 167.81 48.64C166.826 48.136 166.046 47.464 165.47 46.624C164.918 45.784 164.642 44.836 164.642 43.78C164.642 42.484 164.978 41.464 165.65 40.72C166.322 39.952 167.414 39.4 168.926 39.064C170.438 38.728 172.466 38.56 175.01 38.56H176.81V41.152H175.046C173.558 41.152 172.37 41.224 171.482 41.368C170.594 41.512 169.958 41.764 169.574 42.124C169.214 42.46 169.034 42.94 169.034 43.564C169.034 44.356 169.31 45.004 169.862 45.508C170.414 46.012 171.182 46.264 172.166 46.264C172.958 46.264 173.654 46.084 174.254 45.724C174.878 45.34 175.37 44.824 175.73 44.176C176.09 43.528 176.27 42.784 176.27 41.944V37.804C176.27 36.604 176.006 35.74 175.478 35.212C174.95 34.684 174.062 34.42 172.814 34.42C172.118 34.42 171.362 34.504 170.546 34.672C169.754 34.84 168.914 35.128 168.026 35.536C167.57 35.752 167.162 35.812 166.802 35.716C166.466 35.62 166.202 35.428 166.01 35.14C165.818 34.828 165.722 34.492 165.722 34.132C165.722 33.772 165.818 33.424 166.01 33.088C166.202 32.728 166.526 32.464 166.982 32.296C168.086 31.84 169.142 31.516 170.15 31.324C171.182 31.132 172.118 31.036 172.958 31.036C174.686 31.036 176.102 31.3 177.206 31.828C178.334 32.356 179.174 33.16 179.726 34.24C180.278 35.296 180.554 36.664 180.554 38.344V46.984C180.554 47.728 180.374 48.304 180.014 48.712C179.654 49.096 179.138 49.288 178.466 49.288C177.794 49.288 177.266 49.096 176.882 48.712C176.522 48.304 176.342 47.728 176.342 46.984V45.256H176.63C176.462 46.096 176.126 46.828 175.622 47.452C175.142 48.052 174.53 48.52 173.786 48.856C173.042 49.192 172.19 49.36 171.23 49.36ZM191.565 49.36C190.533 49.36 189.441 49.252 188.289 49.036C187.137 48.82 186.105 48.448 185.193 47.92C184.809 47.68 184.533 47.404 184.365 47.092C184.221 46.756 184.161 46.432 184.185 46.12C184.233 45.784 184.353 45.496 184.545 45.256C184.761 45.016 185.025 44.86 185.337 44.788C185.673 44.716 186.033 44.776 186.417 44.968C187.377 45.424 188.277 45.748 189.117 45.94C189.957 46.108 190.785 46.192 191.601 46.192C192.753 46.192 193.605 46 194.157 45.616C194.733 45.208 195.021 44.68 195.021 44.032C195.021 43.48 194.829 43.06 194.445 42.772C194.085 42.46 193.533 42.232 192.789 42.088L189.189 41.404C187.701 41.116 186.561 40.576 185.769 39.784C185.001 38.968 184.617 37.924 184.617 36.652C184.617 35.5 184.929 34.504 185.553 33.664C186.201 32.824 187.089 32.176 188.217 31.72C189.345 31.264 190.641 31.036 192.105 31.036C193.161 31.036 194.145 31.156 195.057 31.396C195.993 31.612 196.893 31.96 197.757 32.44C198.117 32.632 198.357 32.884 198.477 33.196C198.621 33.508 198.657 33.832 198.585 34.168C198.513 34.48 198.369 34.768 198.153 35.032C197.937 35.272 197.661 35.428 197.325 35.5C197.013 35.548 196.653 35.476 196.245 35.284C195.501 34.9 194.781 34.624 194.085 34.456C193.413 34.288 192.765 34.204 192.141 34.204C190.965 34.204 190.089 34.408 189.513 34.816C188.961 35.224 188.685 35.764 188.685 36.436C188.685 36.94 188.853 37.36 189.189 37.696C189.525 38.032 190.041 38.26 190.737 38.38L194.337 39.064C195.897 39.352 197.073 39.88 197.865 40.648C198.681 41.416 199.089 42.448 199.089 43.744C199.089 45.496 198.405 46.876 197.037 47.884C195.669 48.868 193.845 49.36 191.565 49.36Z" fill="#3FB8A7"/>
</svg>
